<svg width="32" height="32" viewBox="0 0 32 32" fill="none" xmlns="http://www.w3.org/2000/svg">
<g clip-path="url(#clip0_15_28)">
<path d="M16.0001 -0.0339355C7.15909 -0.0339355 -0.0349121 7.15806 -0.0349121 16.0001C-0.0349121 24.8421 7.15909 32.0341 16.0001 32.0341C24.8411 32.0341 32.0351 24.8421 32.0351 16.0001C32.0351 7.15806 24.8411 -0.0339355 16.0001 -0.0339355ZM16.0001 30.9661C7.74809 30.9661 1.03509 24.2521 1.03509 16.0001C1.03509 7.74806 7.74809 1.03406 16.0001 1.03406C24.2521 1.03406 30.9651 7.74806 30.9651 16.0001C30.9651 24.2521 24.2521 30.9661 16.0001 30.9661Z" fill="white"/>
<path d="M24.7942 11.0461C24.9051 10.8407 24.9965 10.6255 25.0672 10.4031C25.0999 10.2999 25.1006 10.1892 25.0691 10.0857C25.0376 9.98215 24.9755 9.89059 24.8908 9.8231C24.8062 9.75561 24.7032 9.71536 24.5952 9.70768C24.4872 9.7 24.3795 9.72524 24.2862 9.78006C23.7738 10.0845 23.2191 10.3113 22.6402 10.4531C21.9375 9.81884 21.0248 9.46724 20.0782 9.46606C19.5639 9.46646 19.055 9.5707 18.582 9.77253C18.1089 9.97435 17.6815 10.2696 17.3254 10.6406C16.9692 11.0116 16.6917 11.4507 16.5093 11.9316C16.327 12.4125 16.2436 12.9252 16.2642 13.4391C14.0152 13.1559 11.9615 12.0179 10.5292 10.2611C10.4743 10.1945 10.4042 10.1422 10.3247 10.1085C10.2453 10.0749 10.1589 10.0609 10.0729 10.0678C9.98695 10.0746 9.90389 10.1022 9.83081 10.148C9.75774 10.1938 9.6968 10.2566 9.65319 10.3311C9.32521 10.894 9.14694 11.5316 9.13539 12.183C9.12384 12.8344 9.27938 13.4779 9.58719 14.0521C9.5117 14.0648 9.43917 14.0912 9.37319 14.1301C9.29233 14.1816 9.22577 14.2527 9.17963 14.3368C9.13349 14.4208 9.10926 14.5152 9.10919 14.6111C9.10919 15.7461 9.61419 16.7881 10.4282 17.4961L10.3932 17.5311C10.3317 17.6006 10.2895 17.6849 10.2705 17.7757C10.2516 17.8666 10.2566 17.9608 10.2852 18.0491C10.4549 18.5786 10.7383 19.0646 11.1156 19.4731C11.4928 19.8817 11.9548 20.2028 12.4692 20.4141C11.4128 20.9294 10.2305 21.1304 9.06319 20.9931C8.94319 20.9808 8.82253 21.0088 8.72011 21.0725C8.61768 21.1362 8.53928 21.232 8.49719 21.3451C8.45677 21.4589 8.45601 21.5831 8.49504 21.6975C8.53406 21.8118 8.61059 21.9097 8.71219 21.9751C10.2992 22.9936 12.1454 23.5347 14.0312 23.5341C20.2112 23.5341 23.9052 18.5141 23.9052 13.6611L23.9042 13.4971C24.5031 13.0295 25.0234 12.4691 25.4452 11.8371C25.5091 11.7415 25.5405 11.6279 25.5348 11.5132C25.5291 11.3984 25.4866 11.2885 25.4135 11.1997C25.3405 11.111 25.2408 11.0481 25.1293 11.0205C25.0177 10.9928 24.9002 11.0018 24.7942 11.0461V11.0461ZM23.0492 12.8011C22.9766 12.8532 22.9183 12.9228 22.8795 13.0033C22.8407 13.0838 22.8227 13.1728 22.8272 13.2621C22.8332 13.3941 22.8362 13.5281 22.8362 13.6601C22.8362 17.9881 19.5432 22.4651 14.0322 22.4651C13.0493 22.4655 12.0733 22.3005 11.1452 21.9771C12.2568 21.764 13.301 21.2874 14.1902 20.5871C14.2767 20.5188 14.3401 20.4255 14.3716 20.3199C14.4031 20.2143 14.4012 20.1015 14.3662 19.997C14.3312 19.8925 14.2648 19.8013 14.176 19.736C14.0872 19.6707 13.9804 19.6344 13.8702 19.6321C13.439 19.6238 13.0158 19.5144 12.6347 19.3125C12.2536 19.1107 11.9253 18.8221 11.6762 18.4701C11.9292 18.4531 12.1772 18.4111 12.4182 18.3461C12.5348 18.3148 12.6374 18.245 12.7093 18.148C12.7811 18.0509 12.818 17.9324 12.8138 17.8117C12.8096 17.6911 12.7647 17.5754 12.6863 17.4835C12.6079 17.3917 12.5007 17.3291 12.3822 17.3061C11.8952 17.207 11.4443 16.9774 11.0778 16.6419C10.7112 16.3063 10.4428 15.8774 10.3012 15.4011C10.5672 15.4681 10.8402 15.5071 11.1132 15.5161C11.3482 15.5151 11.5662 15.3711 11.6392 15.1451C11.7122 14.9191 11.6262 14.6701 11.4272 14.5381C10.9567 14.2246 10.5944 13.7735 10.3898 13.2464C10.1852 12.7193 10.1483 12.1419 10.2842 11.5931C12.0212 13.3754 14.3667 14.4367 16.8522 14.5651C17.0282 14.5661 17.1822 14.5031 17.2892 14.3741C17.3962 14.2451 17.4372 14.0741 17.3992 13.9101C17.2624 13.3211 17.3236 12.7034 17.5732 12.1527C17.8229 11.6019 18.2471 11.1489 18.7802 10.8635C19.3133 10.5782 19.9256 10.4765 20.5223 10.5742C21.1191 10.6719 21.6669 10.9636 22.0812 11.4041C22.1433 11.4703 22.2212 11.5197 22.3076 11.5475C22.394 11.5753 22.4861 11.5807 22.5752 11.5631C22.7402 11.5301 22.9032 11.4921 23.0642 11.4481C22.9916 11.5024 22.9162 11.5528 22.8382 11.5991C22.7345 11.6626 22.6555 11.7595 22.6143 11.8739C22.5731 11.9884 22.5721 12.1134 22.6114 12.2285C22.6508 12.3435 22.7282 12.4417 22.8309 12.5069C22.9335 12.5721 23.0553 12.6004 23.1762 12.5871L23.3582 12.5641C23.258 12.6466 23.1549 12.7257 23.0492 12.8011V12.8011Z" fill="white"/>
</g>
<defs>
<clipPath id="clip0_15_28">
<rect width="32" height="32" fill="white"/>
</clipPath>
</defs>
</svg>
