<svg width="32" height="32" viewBox="0 0 32 32" fill="none" xmlns="http://www.w3.org/2000/svg">
<path d="M21.2159 9.79428C21.0174 9.79158 20.8226 9.8478 20.656 9.95583C20.4895 10.0639 20.3587 10.2188 20.2802 10.4012C20.2018 10.5835 20.1791 10.7851 20.2152 10.9803C20.2513 11.1755 20.3444 11.3556 20.4828 11.4979C20.6213 11.6402 20.7988 11.7382 20.9929 11.7796C21.1871 11.821 21.3891 11.8039 21.5736 11.7305C21.758 11.657 21.9165 11.5306 22.0291 11.367C22.1416 11.2035 22.2032 11.0103 22.2059 10.8118V10.7843C22.2035 10.5225 22.0984 10.272 21.9133 10.0869C21.7281 9.90174 21.4777 9.79667 21.2159 9.79428Z" stroke="white" stroke-width="0.666667" stroke-linecap="round" stroke-linejoin="round"/>
<path d="M23.5853 7.5208H8.4145C8.17538 7.52678 7.94807 7.62599 7.78109 7.79726C7.6141 7.96852 7.52068 8.19827 7.52075 8.43747V23.6083C7.52075 23.8514 7.61733 24.0846 7.78924 24.2565C7.96115 24.4284 8.1943 24.525 8.43742 24.525H23.6083C23.8514 24.525 24.0845 24.4284 24.2564 24.2565C24.4283 24.0846 24.5249 23.8514 24.5249 23.6083V8.41455C24.5219 8.29416 24.4953 8.17554 24.4464 8.06546C24.3976 7.95538 24.3276 7.856 24.2403 7.773C24.1531 7.69 24.0503 7.625 23.9379 7.58173C23.8255 7.53846 23.7057 7.51775 23.5853 7.5208V7.5208Z" stroke="white" stroke-width="0.666667" stroke-linecap="round" stroke-linejoin="round"/>
<path d="M16.0001 12.2051C15.2495 12.2051 14.5158 12.4277 13.8917 12.8447C13.2676 13.2617 12.7812 13.8543 12.494 14.5478C12.2067 15.2412 12.1316 16.0043 12.278 16.7404C12.4244 17.4766 12.7859 18.1528 13.3166 18.6835C13.8473 19.2143 14.5236 19.5757 15.2597 19.7222C15.9959 19.8686 16.7589 19.7934 17.4524 19.5062C18.1458 19.219 18.7385 18.7326 19.1555 18.1085C19.5725 17.4844 19.7951 16.7507 19.7951 16.0001V16.0001C19.7951 14.9936 19.3953 14.0283 18.6836 13.3166C17.9718 12.6049 17.0066 12.2051 16.0001 12.2051V12.2051Z" stroke="white" stroke-width="0.666667" stroke-linecap="round" stroke-linejoin="round"/>
<circle cx="16" cy="16" r="15.5" stroke="white"/>
</svg>
