<svg width="234" height="38" viewBox="0 0 234 38" fill="none" xmlns="http://www.w3.org/2000/svg">
<path d="M27.2679 0.856452C19.736 0.852555 11.8775 2.54794 3.9459 4.74707C2.93872 4.94973 1.95592 5.6084 1.43625 6.42296C0.958497 7.19076 0.784947 7.96148 0.635772 8.76922C-0.134478 13.0837 -0.0408778 17.3202 0.119022 22.0147C0.154122 23.0894 0.314022 24.3629 0.816147 25.1375C1.3407 25.9199 2.23965 26.4168 3.31312 26.5795C4.68456 26.7806 6.0603 26.9511 7.43932 27.0911L7.13512 35.566C7.08832 36.2403 7.41787 36.8005 7.82737 37.1231C8.19397 37.4017 8.6025 37.5255 9.02175 37.5567C9.86025 37.62 10.844 37.2614 11.3325 36.3319C13.4726 32.2162 14.8152 30.399 17.4916 27.665C24.4706 27.8364 30.5634 27.4487 37.4615 26.9391C39.9 26.8757 41.5741 24.8832 42.0167 23.292C43.3398 19.1686 43.5455 14.0785 43.6859 8.93291C43.7454 6.89358 43.0376 4.89127 41.7847 3.83312C40.5932 2.86753 39.1502 2.51773 37.8281 2.15917C34.1553 1.32804 30.4815 0.881785 27.2679 0.856452ZM37.3007 4.08158C38.6247 4.44112 39.7918 4.78702 40.5279 5.3843C41.7564 6.68896 41.7154 7.55712 41.6979 8.96507C41.5594 13.9557 41.3196 18.7993 40.1925 22.4697C39.707 23.8387 38.8607 24.813 37.2616 24.9601C30.2338 25.4795 24.1362 25.8809 17.0723 25.6802C16.9348 25.6758 16.7978 25.6996 16.6698 25.7503C16.5419 25.8009 16.4257 25.8772 16.3284 25.9744C13.3605 28.9696 11.8424 31.0509 9.58042 35.4023C9.52777 35.5017 9.4137 35.5621 9.2733 35.5729C9.17872 35.568 9.1407 35.4949 9.13485 35.4287L9.441 26.2385C9.45952 25.7426 9.05002 25.269 8.55667 25.2154C6.90709 25.058 5.262 24.8565 3.62317 24.6113C2.91532 24.5032 2.65402 24.3093 2.46 24.0209C2.12265 23.217 2.13045 22.7201 2.10412 21.9474C1.94617 17.2949 1.86817 13.2289 2.58285 9.18332C2.64915 8.58507 2.8734 7.97317 3.1113 7.46163C3.5052 6.84584 4.10872 6.75522 4.7142 6.58763C12.4713 4.44696 20.0607 2.84609 27.2055 2.84122C30.7077 2.96789 34.3854 3.31866 37.3007 4.08158V4.08158ZM10.5086 11.9641C9.44002 13.2435 9.5463 14.9808 10.3721 16.1441C10.8031 16.7531 11.4758 17.2432 12.2948 17.3543C13.3585 17.442 14.0332 17.0113 14.7616 16.5163C16.0807 15.3705 16.2143 13.3711 15.211 11.9271C14.7001 11.1915 13.8831 10.7501 13.0485 10.7189C11.9058 10.7306 11.1297 11.2402 10.5086 11.9632V11.9641ZM22.0682 10.9196C21.0035 10.9537 20.1426 11.6903 19.6171 12.4854C19.0155 13.3945 18.6645 14.5326 19.151 15.6482C20.087 17.7947 23.3211 17.7684 24.611 15.5868C25.2058 14.5813 25.0537 13.4383 24.611 12.6092C24.1703 11.781 23.5034 11.1057 22.5333 10.9508C22.3796 10.9256 22.2239 10.9151 22.0682 10.9196V10.9196ZM31.4526 11.1213C31.1211 11.1135 30.7798 11.1447 30.46 11.2295C29.1808 11.5705 28.0918 12.8898 28.2566 14.5783C28.3404 15.428 28.7314 16.2562 29.4363 16.8272C30.1412 17.3972 31.165 17.6524 32.2443 17.4313C33.4845 17.1779 34.2528 16.1792 34.5092 15.2146C34.7657 14.25 34.7013 13.2669 34.1056 12.4698C33.7956 12.0579 33.3955 11.7223 32.9359 11.4886C32.4762 11.2549 31.9692 11.1292 31.4536 11.1213H31.4526ZM12.9617 12.7027C13.2006 12.7047 13.3888 12.7807 13.5828 13.0593C14.0167 13.6849 13.8958 14.6329 13.458 15.0129C13.0222 15.3929 12.7501 15.426 12.559 15.4007C12.3679 15.3744 12.1739 15.2429 12.0004 14.9973C11.6689 14.5296 11.5714 13.7735 12.0072 13.2337C12.2392 12.9258 12.6653 12.7339 12.9627 12.7027H12.9617ZM22.2076 12.92C22.2447 12.9258 22.66 13.1665 22.8589 13.5397C23.0578 13.9129 23.0949 14.2597 22.9057 14.5783C22.3432 15.5293 21.1468 15.2721 20.9655 14.858C20.8972 14.7001 20.9489 14.0658 21.2775 13.5718C21.6041 13.0759 22.0156 12.8898 22.2076 12.919V12.92ZM32.5076 13.6488C32.568 13.7297 32.7152 14.2724 32.6012 14.7031C32.4861 15.1337 32.2989 15.3997 31.8407 15.4933C31.2537 15.6141 30.9242 15.4933 30.6775 15.2916C30.4298 15.0918 30.2631 14.7537 30.227 14.3922C30.1393 13.4958 30.461 13.2883 30.9719 13.1519C31.5667 13.0057 32.2394 13.261 32.5076 13.6488V13.6488Z" fill="white"/>
<path d="M56.1698 4.86794C56.1854 4.6146 56.278 4.3866 56.4496 4.18491C56.5331 4.08603 56.6381 4.00745 56.7565 3.95512C56.8749 3.90278 57.0037 3.87807 57.1331 3.88286H63.7885C64.0127 3.88286 64.2438 3.9764 64.4827 4.1625C64.5946 4.24281 64.6856 4.34879 64.748 4.47155C64.8105 4.5943 64.8425 4.73024 64.8414 4.86794V15.4816H75.9769V4.86794C75.9769 4.59901 76.0705 4.36809 76.2567 4.17419C76.4439 3.97932 76.6857 3.88188 76.9851 3.88188H83.5507C83.8491 3.88188 84.1104 3.95691 84.3346 4.10599C84.5589 4.25604 84.671 4.49476 84.671 4.82312V36.1488C84.671 36.4771 84.5735 36.7236 84.3785 36.8873C84.1854 37.052 83.931 37.1338 83.618 37.1338H76.9851C76.6867 37.1338 76.4439 37.052 76.2567 36.8873C76.0705 36.7236 75.9769 36.4781 75.9769 36.1488V23.4304H64.8414V36.1488C64.8414 36.4625 64.74 36.7041 64.5392 36.8766C64.3374 37.0481 64.0644 37.1338 63.7202 37.1338H57.1331C56.5062 37.1338 56.1854 36.8425 56.1698 36.2608V4.86794ZM117.473 36.7538C117.279 36.9175 117.073 37.0218 116.857 37.0666C116.654 37.1102 116.448 37.133 116.241 37.1348H112.858C112.589 37.1348 112.357 37.0861 112.163 36.9887C111.968 36.8912 111.804 36.7607 111.67 36.597C111.532 36.4269 111.419 36.2383 111.334 36.0367C111.244 35.8261 111.169 35.6092 111.11 35.3878L110.416 32.5212C110.192 32.984 109.867 33.5102 109.441 34.0997C108.98 34.7253 108.433 35.2829 107.817 35.7561C107.159 36.2725 106.374 36.7051 105.464 37.0559C104.552 37.4067 103.507 37.582 102.326 37.582C100.624 37.582 99.0776 37.2537 97.6882 36.597C96.328 35.9618 95.1178 35.046 94.1373 33.9097C93.1594 32.7755 92.4008 31.4504 91.8636 29.9343C91.3254 28.4201 91.0563 26.8037 91.0563 25.0878V10.4208C91.0563 9.85373 91.1801 9.42501 91.4268 9.13368C91.6725 8.84235 92.0644 8.69717 92.6026 8.69717H97.7779C98.4214 8.69717 98.8611 8.80435 99.1 9.02163C99.3389 9.23794 99.4588 9.65983 99.4588 10.2863V24.8628C99.4588 25.5058 99.6051 26.1138 99.8956 26.6887C100.187 27.2636 100.571 27.7702 101.05 28.2107C101.528 28.6511 102.069 28.9989 102.674 29.2522C103.279 29.5056 103.895 29.6322 104.523 29.6322C105.06 29.6322 105.617 29.5056 106.192 29.2522C106.771 28.9957 107.308 28.6519 107.782 28.2331C108.268 27.8082 108.668 27.3074 108.982 26.7326C109.296 26.1577 109.452 25.5497 109.452 24.9086V10.3536C109.452 10.1002 109.5 9.84691 109.598 9.5926C109.695 9.33927 109.841 9.1444 110.035 9.00994C110.229 8.89106 110.412 8.80922 110.584 8.7644C110.755 8.71958 110.954 8.69619 111.177 8.69619H116.241C116.883 8.69619 117.346 8.85404 117.63 9.16681C117.914 9.48055 118.056 9.89855 118.056 10.4208V35.4774C118.056 35.76 117.993 36.0221 117.866 36.2608C117.739 36.4995 117.564 36.6866 117.339 36.8201L117.473 36.7538V36.7538ZM143.487 33.6632C143.083 34.0666 142.639 34.4992 142.154 34.962C141.669 35.4248 141.134 35.8584 140.552 36.2608C139.966 36.6658 139.335 37.0003 138.67 37.2576C137.977 37.5228 137.239 37.6556 136.496 37.6493C134.465 37.6493 132.594 37.2693 130.883 36.5073C129.215 35.7759 127.713 34.7131 126.469 33.3835C125.237 32.0623 124.274 30.5062 123.579 28.7144C122.884 26.9235 122.537 24.9982 122.537 22.9374C122.537 20.862 122.884 18.9328 123.579 17.1497C124.274 15.3667 125.237 13.8135 126.469 12.4923C127.712 11.164 129.214 10.1048 130.883 9.38019C132.594 8.62604 134.465 8.24896 136.496 8.24896C137.318 8.24896 138.069 8.36881 138.748 8.60752C139.404 8.83456 140.029 9.14292 140.608 9.52537C141.168 9.89855 141.683 10.3204 142.154 10.7901C142.624 11.2607 143.069 11.7196 143.487 12.1678V1.93414C143.487 1.45671 143.633 1.05429 143.924 0.725936C144.215 0.396603 144.652 0.23291 145.235 0.23291H150.276C150.471 0.23291 150.676 0.273833 150.892 0.355679C151.108 0.4385 151.306 0.553474 151.487 0.703526C151.665 0.852602 151.81 1.03188 151.923 1.2404C152.035 1.44988 152.091 1.68081 152.091 1.93414V35.4102C152.091 36.5599 151.487 37.1348 150.276 37.1348H145.884C145.586 37.1348 145.354 37.0958 145.19 37.0218C145.028 36.9488 144.885 36.8375 144.775 36.6973C144.65 36.533 144.548 36.3524 144.473 36.1604C144.367 35.9077 144.255 35.6575 144.137 35.4102L143.487 33.6632V33.6632ZM130.603 22.9374C130.596 23.879 130.751 24.8149 131.062 25.7036C131.369 26.5611 131.805 27.3045 132.374 27.931C132.948 28.5625 133.645 29.0692 134.423 29.4198C135.223 29.7862 136.108 29.9684 137.079 29.9684C138.035 29.9684 138.935 29.7969 139.779 29.4539C140.599 29.1257 141.348 28.6427 141.985 28.0314C142.619 27.4192 143.132 26.6942 143.499 25.8936C143.879 25.0722 144.092 24.1914 144.137 23.2512V22.9374C144.141 22.0004 143.958 21.0721 143.599 20.2063C143.252 19.3575 142.746 18.5825 142.109 17.9224C141.471 17.2631 140.71 16.7345 139.869 16.3663C138.99 15.9815 138.039 15.7869 137.079 15.7954C136.108 15.7954 135.223 15.9854 134.423 16.3663C133.624 16.7463 132.941 17.2657 132.374 17.9224C131.797 18.5946 131.352 19.3695 131.062 20.2063C130.755 21.0838 130.6 22.0076 130.604 22.9374H130.603ZM178.105 33.6632C177.702 34.0666 177.257 34.4992 176.771 34.962C176.286 35.4248 175.752 35.8584 175.17 36.2608C174.584 36.6658 173.952 37.0003 173.288 37.2576C172.594 37.5228 171.856 37.6556 171.114 37.6493C169.083 37.6493 167.212 37.2693 165.501 36.5073C163.833 35.776 162.331 34.7132 161.087 33.3835C159.855 32.0623 158.891 30.5062 158.197 28.7144C157.503 26.9235 157.154 24.9982 157.154 22.9374C157.154 20.862 157.503 18.9328 158.197 17.1497C158.891 15.3667 159.854 13.8135 161.087 12.4923C162.33 11.1639 163.832 10.1046 165.501 9.38019C167.212 8.62604 169.083 8.24896 171.114 8.24896C171.935 8.24896 172.686 8.36881 173.366 8.60752C174.022 8.83456 174.646 9.14292 175.225 9.52537C175.786 9.89855 176.301 10.3204 176.771 10.7901C177.242 11.2607 177.686 11.7196 178.104 12.1678V1.93414C178.104 1.45671 178.251 1.05429 178.541 0.725936C178.834 0.396603 179.269 0.23291 179.852 0.23291H184.893C185.088 0.23291 185.293 0.273833 185.509 0.355679C185.727 0.4385 185.925 0.553474 186.104 0.703526C186.283 0.852602 186.429 1.03188 186.541 1.2404C186.652 1.44988 186.709 1.68081 186.709 1.93414V35.4102C186.709 36.5599 186.104 37.1348 184.893 37.1348H180.502C180.203 37.1348 179.971 37.0958 179.808 37.0218C179.645 36.9487 179.503 36.8373 179.393 36.6973C179.268 36.533 179.167 36.3524 179.091 36.1604C178.985 35.9076 178.873 35.6575 178.755 35.4102L178.104 33.6632H178.105ZM165.221 22.9374C165.213 23.879 165.368 24.8149 165.68 25.7036C165.987 26.5611 166.424 27.3045 166.991 27.931C167.565 28.5626 168.263 29.0693 169.042 29.4198C169.841 29.7862 170.725 29.9684 171.697 29.9684C172.652 29.9684 173.552 29.7969 174.396 29.4539C175.217 29.1258 175.966 28.6428 176.604 28.0314C177.236 27.419 177.749 26.694 178.115 25.8936C178.496 25.0722 178.71 24.1914 178.755 23.2512V22.9374C178.758 22.0004 178.575 21.0721 178.216 20.2063C177.869 19.3575 177.364 18.5825 176.727 17.9224C176.088 17.2631 175.327 16.7345 174.486 16.3663C173.607 15.9815 172.656 15.7869 171.697 15.7954C170.725 15.7954 169.84 15.9854 169.042 16.3663C168.242 16.7463 167.559 17.2657 166.991 17.9224C166.414 18.5946 165.97 19.3695 165.68 20.2063C165.372 21.0838 165.217 22.0076 165.222 22.9374H165.221ZM192.67 1.95655C192.67 1.47912 192.789 1.07671 193.028 0.748346C193.267 0.419013 193.678 0.25532 194.26 0.25532H199.749C199.899 0.25532 200.056 0.296244 200.22 0.37809C200.392 0.466354 200.548 0.584082 200.679 0.725936C200.822 0.875013 200.941 1.05429 201.038 1.26281C201.136 1.47229 201.184 1.70322 201.184 1.95655V35.4102C201.184 35.9773 201.024 36.406 200.702 36.6973C200.381 36.9887 199.967 37.1338 199.459 37.1338H194.26C193.678 37.1338 193.267 36.9877 193.028 36.6973C192.789 36.406 192.67 35.9763 192.67 35.4102V1.95655ZM230.402 33.7304C229.103 34.9297 227.601 35.8888 225.966 36.5629C224.31 37.2447 222.536 37.5911 220.745 37.582C218.697 37.582 216.764 37.2089 214.942 36.4615C213.161 35.7421 211.533 34.6899 210.147 33.3611C208.765 32.0299 207.655 30.4445 206.876 28.692C206.068 26.9011 205.666 24.9534 205.666 22.8478C205.666 21.5343 205.825 20.2618 206.147 19.0302C206.458 17.8252 206.917 16.6634 207.514 15.5713C208.104 14.4964 208.827 13.4996 209.665 12.6043C210.501 11.7076 211.454 10.9278 212.499 10.2863C213.563 9.6366 214.708 9.13195 215.905 8.78583C217.165 8.42292 218.47 8.24213 219.781 8.24896C221.021 8.24896 222.223 8.41363 223.388 8.74199C224.553 9.07035 225.648 9.53317 226.671 10.1295C227.695 10.7268 228.631 11.4439 229.483 12.2799C230.323 13.102 231.06 14.023 231.679 15.0227C232.291 16.0152 232.77 17.0842 233.102 18.202C233.437 19.3294 233.606 20.4898 233.606 21.6834C233.606 22.46 233.594 23.0943 233.572 23.5873C233.55 24.0794 233.434 24.472 233.225 24.7624C233.015 25.0547 232.669 25.2554 232.183 25.3665C231.697 25.4795 230.983 25.5351 230.043 25.5351H213.911C214.06 26.4899 214.363 27.2889 214.818 27.932C215.24 28.5407 215.776 29.0613 216.397 29.4647C216.995 29.8456 217.63 30.1175 218.303 30.2831C218.925 30.4407 219.564 30.5232 220.207 30.5287C220.745 30.5287 221.297 30.4721 221.864 30.3611C222.424 30.2514 222.974 30.1016 223.512 29.9129C224.015 29.7382 224.502 29.5208 224.968 29.263C225.408 29.0174 225.763 28.7592 226.032 28.4913C226.271 28.2964 226.477 28.1512 226.649 28.0538C226.82 27.9563 227.003 27.9086 227.197 27.9086C227.392 27.9086 227.589 27.9768 227.792 28.1103C228.038 28.2819 228.266 28.4767 228.475 28.692L230.85 31.3793C231.014 31.5741 231.119 31.7495 231.164 31.9054C231.209 32.0623 231.231 32.2231 231.231 32.3868C231.231 32.6859 231.148 32.9431 230.984 33.1594C230.819 33.377 230.622 33.5694 230.401 33.7304H230.402ZM219.625 15.0782C219.042 15.0782 218.478 15.1942 217.933 15.4251C217.38 15.6611 216.863 15.9741 216.397 16.3547C215.92 16.7424 215.491 17.1829 215.109 17.6759C214.746 18.1407 214.434 18.6439 214.179 19.1764H225.629C225.328 18.615 224.988 18.0761 224.61 17.5638C224.25 17.0778 223.828 16.6412 223.355 16.265C222.871 15.8845 222.325 15.5892 221.741 15.392C221.137 15.1825 220.431 15.0782 219.625 15.0782Z" fill="white"/>
</svg>
